<svg viewBox="0 0 1200 1800" xmlns="http://www.w3.org/2000/svg">
  <!-- 스타일 및 배경 -->
  <defs>
    <style>
      text {
        font-family: Arial, sans-serif;
      }
      .title {
        font-size: 26px;
        font-weight: bold;
        text-anchor: middle;
      }
      .subtitle {
        font-size: 18px;
        font-weight: bold;
        text-anchor: middle;
      }
      .step-title {
        font-size: 16px;
        font-weight: bold;
        text-anchor: middle;
      }
      .step-desc {
        font-size: 12px;
        text-anchor: middle;
      }
      .step-box {
        fill: #f0f7ff;
        stroke: #3498db;
        stroke-width: 2;
        rx: 10;
        ry: 10;
      }
      .decision-box {
        fill: #ffefd5;
        stroke: #ff9800;
        stroke-width: 2;
      }
      .flow-arrow {
        stroke: #666;
        stroke-width: 2;
        fill: none;
        marker-end: url(#arrowhead);
      }
      .section-box {
        fill: #f9f9f9;
        stroke: #ddd;
        stroke-width: 2;
        rx: 15;
        ry: 15;
        opacity: 0.8;
      }
      .module-title {
        font-size: 20px;
        font-weight: bold;
        text-anchor: start;
      }
    </style>
    <marker
      id="arrowhead"
      markerWidth="10"
      markerHeight="7"
      refX="9"
      refY="3.5"
      orient="auto">
      <polygon points="0 0, 10 3.5, 0 7" fill="#666" />
    </marker>
  </defs>
  
  <!-- 제목 및 범례 -->
  <text x="600" y="40" class="title">WhisperMind 앱 유저플로우 도식도</text>
  
  <!-- 1. 온보딩 및 회원가입 섹션 -->
  <rect x="50" y="70" width="1100" height="260" class="section-box" />
  <text x="75" y="100" class="module-title">1. 온보딩 및 회원가입</text>
  
  <!-- 온보딩 단계 -->
  <rect x="100" y="130" width="120" height="70" class="step-box" />
  <text x="160" y="155" class="step-title">스플래시 화면</text>
  <text x="160" y="175" class="step-desc">앱 로고 표시</text>
  
  <line x1="220" y1="165" x2="270" y2="165" class="flow-arrow" />
  
  <rect x="270" y="130" width="120" height="70" class="step-box" />
  <text x="330" y="155" class="step-title">온보딩 화면</text>
  <text x="330" y="175" class="step-desc">앱 소개 및 주요 기능</text>
  
  <line x1="390" y1="165" x2="440" y2="165" class="flow-arrow" />
  
  <rect x="440" y="130" width="120" height="70" class="step-box" />
  <text x="500" y="155" class="step-title">계정 옵션</text>
  <text x="500" y="175" class="step-desc">회원가입/로그인 선택</text>
  
  <line x1="500" y1="200" x2="500" y2="230" class="flow-arrow" />
  
  <!-- 회원가입 분기 -->
  <rect x="360" y="230" width="120" height="70" class="step-box" />
  <text x="420" y="255" class="step-title">회원가입</text>
  <text x="420" y="275" class="step-desc">이메일, 비밀번호 설정</text>
  
  <rect x="520" y="230" width="120" height="70" class="step-box" />
  <text x="580" y="255" class="step-title">로그인</text>
  <text x="580" y="275" class="step-desc">계정 접근</text>
  
  <line x1="440" y1="195" x2="420" y2="230" class="flow-arrow" />
  <line x1="560" y1="195" x2="580" y2="230" class="flow-arrow" />
  
  <line x1="420" y1="300" x2="420" y2="330" class="flow-arrow" />
  <line x1="580" y1="300" x2="580" y2="330" class="flow-arrow" />
  
  <rect x="680" y="130" width="120" height="70" class="step-box" />
  <text x="740" y="155" class="step-title">초기 감정 설정</text>
  <text x="740" y="175" class="step-desc">현재 감정 상태 선택</text>
  
  <line x1="640" y1="265" x2="740" y2="165" class="flow-arrow" />
  <line x1="800" y1="165" x2="860" y2="165" class="flow-arrow" />
  
  <rect x="860" y="130" width="120" height="70" class="step-box" />
  <text x="920" y="155" class="step-title">홈화면</text>
  <text x="920" y="175" class="step-desc">대시보드 진입</text>
  
  <!-- 2. 메인 사용자 여정 섹션 -->
  <rect x="50" y="360" width="1100" height="600" class="section-box" />
  <text x="75" y="390" class="module-title">2. 메인 사용자 여정</text>
  
  <!-- 홈 대시보드 -->
  <rect x="490" y="420" width="120" height="70" class="step-box" />
  <text x="550" y="445" class="step-title">홈 대시보드</text>
  <text x="550" y="465" class="step-desc">중앙 허브</text>
  
  <!-- 대시보드에서 분기 -->
  <line x1="550" y1="490" x2="550" y2="520" class="flow-arrow" />
  <line x1="490" y1="455" x2="400" y2="455" class="flow-arrow" />
  <line x1="610" y1="455" x2="700" y2="455" class="flow-arrow" />
  <line x1="525" y1="490" x2="300" y2="560" class="flow-arrow" />
  <line x1="575" y1="490" x2="800" y2="560" class="flow-arrow" />
  
  <!-- 감정 일기 작성 -->
  <rect x="280" y="420" width="120" height="70" class="step-box" />
  <text x="340" y="445" class="step-title">감정 일기 작성</text>
  <text x="340" y="465" class="step-desc">감정 기록 및 분석</text>
  
  <!-- 감정 일기 작성 흐름 -->
  <rect x="180" y="500" width="100" height="60" class="step-box" />
  <text x="230" y="525" class="step-title">감정 선택</text>
  <text x="230" y="540" class="step-desc">이모티콘/강도</text>
  
  <line x1="230" y1="560" x2="230" y2="590" class="flow-arrow" />
  
  <rect x="180" y="590" width="100" height="60" class="step-box" />
  <text x="230" y="615" class="step-title">일기 작성</text>
  <text x="230" y="630" class="step-desc">텍스트/미디어</text>
  
  <line x1="230" y1="650" x2="230" y2="680" class="flow-arrow" />
  
  <rect x="180" y="680" width="100" height="60" class="step-box" />
  <text x="230" y="705" class="step-title">AI 분석</text>
  <text x="230" y="720" class="step-desc">감정 분석/추천</text>
  
  <!-- 통계 및 분석 -->
  <rect x="700" y="420" width="120" height="70" class="step-box" />
  <text x="760" y="445" class="step-title">감정 통계</text>
  <text x="760" y="465" class="step-desc">트렌드 및 인사이트</text>
  
  <!-- 통계 분석 흐름 -->
  <rect x="820" y="500" width="100" height="60" class="step-box" />
  <text x="870" y="525" class="step-title">기간별 통계</text>
  <text x="870" y="540" class="step-desc">일/주/월/연간</text>
  
  <line x1="870" y1="560" x2="870" y2="590" class="flow-arrow" />
  
  <rect x="820" y="590" width="100" height="60" class="step-box" />
  <text x="870" y="615" class="step-title">상세 분석</text>
  <text x="870" y="630" class="step-desc">패턴/인사이트</text>
  
  <line x1="870" y1="650" x2="870" y2="680" class="flow-arrow" />
  
  <rect x="820" y="680" width="100" height="60" class="step-box" />
  <text x="870" y="705" class="step-title">치유 진행</text>
  <text x="870" y="720" class="step-desc">여정 트래킹</text>
  
  <!-- 추억 앨범 -->
  <rect x="240" y="560" width="120" height="70" class="step-box" />
  <text x="300" y="585" class="step-title">추억 앨범</text>
  <text x="300" y="605" class="step-desc">소중한 기억 보관</text>
  
  <line x1="300" y1="630" x2="300" y2="660" class="flow-arrow" />
  
  <rect x="240" y="660" width="120" height="70" class="step-box" />
  <text x="300" y="685" class="step-title">미디어 관리</text>
  <text x="300" y="705" class="step-desc">사진/비디오/음성</text>
  
  <!-- 타임캡슐 -->
  <rect x="490" y="520" width="120" height="70" class="step-box" />
  <text x="550" y="545" class="step-title">타임캡슐</text>
  <text x="550" y="565" class="step-desc">미래 메시지 작성</text>
  
  <line x1="550" y1="590" x2="550" y2="620" class="flow-arrow" />
  
  <rect x="490" y="620" width="120" height="70" class="step-box" />
  <text x="550" y="645" class="step-title">캡슐 관리</text>
  <text x="550" y="665" class="step-desc">작성/열람/저장</text>
  
  <!-- 감정 회복 챌린지 -->
  <rect x="740" y="560" width="120" height="70" class="step-box" />
  <text x="800" y="585" class="step-title">감정 회복 챌린지</text>
  <text x="800" y="605" class="step-desc">구조화된 활동</text>
  
  <line x1="800" y1="630" x2="800" y2="660" class="flow-arrow" />
  
  <rect x="740" y="660" width="120" height="70" class="step-box" />
  <text x="800" y="685" class="step-title">챌린지 진행</text>
  <text x="800" y="705" class="step-desc">활동/보상/성취</text>
  
  <!-- 하단 네비게이션 -->
  <rect x="240" y="770" width="620" height="50" rx="25" ry="25" stroke="#333" stroke-width="2" fill="#eee" />
  <text x="300" y="800" class="step-desc">홈</text>
  <text x="400" y="800" class="step-desc">일기</text>
  <text x="550" y="800" class="step-desc">타임캡슐</text>
  <text x="700" y="800" class="step-desc">통계</text>
  <text x="800" y="800" class="step-desc">더보기</text>
  
  <line x1="300" y1="770" x2="300" y2="730" class="flow-arrow" />
  <line x1="400" y1="770" x2="300" y2="730" class="flow-arrow" />
  <line x1="550" y1="770" x2="550" y2="690" class="flow-arrow" />
  <line x1="700" y1="770" x2="800" y2="730" class="flow-arrow" />
  <line x1="800" y1="770" x2="950" y2="880" class="flow-arrow" />
  
  <!-- 3. 설정 및 프로필 관리 섹션 -->
  <rect x="50" y="990" width="1100" height="260" class="section-box" />
  <text x="75" y="1020" class="module-title">3. 설정 및 프로필 관리</text>
  
  <rect x="900" y="880" width="100" height="60" class="step-box" />
  <text x="950" y="905" class="step-title">설정 메뉴</text>
  <text x="950" y="920" class="step-desc">더보기 접근</text>
  
  <line x1="950" y1="940" x2="950" y2="970" class="flow-arrow" />
  
  <!-- 설정 옵션 -->
  <rect x="150" y="1050" width="110" height="60" class="step-box" />
  <text x="205" y="1075" class="step-title">프로필 관리</text>
  <text x="205" y="1090" class="step-desc">개인정보 수정</text>
  
  <rect x="300" y="1050" width="110" height="60" class="step-box" />
  <text x="355" y="1075" class="step-title">알림 설정</text>
  <text x="355" y="1090" class="step-desc">리마인더/알림</text>
  
  <rect x="450" y="1050" width="110" height="60" class="step-box" />
  <text x="505" y="1075" class="step-title">테마 설정</text>
  <text x="505" y="1090" class="step-desc">외관/UI 설정</text>
  
  <rect x="600" y="1050" width="110" height="60" class="step-box" />
  <text x="655" y="1075" class="step-title">보안 설정</text>
  <text x="655" y="1090" class="step-desc">잠금/비공개</text>
  
  <rect x="750" y="1050" width="110" height="60" class="step-box" />
  <text x="805" y="1075" class="step-title">데이터 관리</text>
  <text x="805" y="1090" class="step-desc">백업/복원</text>
  
  <rect x="900" y="1050" width="110" height="60" class="step-box" />
  <text x="955" y="1075" class="step-title">구독 관리</text>
  <text x="955" y="1090" class="step-desc">프리미엄 설정</text>
  
  <line x1="950" y1="1000" x2="205" y2="1050" class="flow-arrow" />
  <line x1="950" y1="1000" x2="355" y2="1050" class="flow-arrow" />
  <line x1="950" y1="1000" x2="505" y2="1050" class="flow-arrow" />
  <line x1="950" y1="1000" x2="655" y2="1050" class="flow-arrow" />
  <line x1="950" y1="1000" x2="805" y2="1050" class="flow-arrow" />
  <line x1="950" y1="1000" x2="955" y2="1050" class="flow-arrow" />
  
  <line x1="205" y1="1110" x2="205" y2="1150" class="flow-arrow" />
  <line x1="355" y1="1110" x2="355" y2="1150" class="flow-arrow" />
  <line x1="505" y1="1110" x2="505" y2="1150" class="flow-arrow" />
  <line x1="655" y1="1110" x2="655" y2="1150" class="flow-arrow" />
  <line x1="805" y1="1110" x2="805" y2="1150" class="flow-arrow" />
  <line x1="955" y1="1110" x2="955" y2="1150" class="flow-arrow" />
  
  <rect x="500" y="1150" width="120" height="70" class="step-box" />
  <text x="560" y="1175" class="step-title">변경사항 적용</text>
  <text x="560" y="1195" class="step-desc">설정 저장 및 반영</text>
  
  <!-- 4. 구독 및 수익화 플로우 -->
  <rect x="50" y="1280" width="1100" height="240" class="section-box" />
  <text x="75" y="1310" class="module-title">4. 구독 및 수익화 플로우</text>
  
  <rect x="200" y="1350" width="120" height="70" class="step-box" />
  <text x="260" y="1375" class="step-title">무료 모드</text>
  <text x="260" y="1395" class="step-desc">광고 포함</text>
  
  <rect x="500" y="1350" width="120" height="70" class="step-box" />
  <text x="560" y="1375" class="step-title">구독 안내</text>
  <text x="560" y="1395" class="step-desc">혜택 및 가격 비교</text>
  
  <line x1="320" y1="1385" x2="500" y2="1385" class="flow-arrow" />
  
  <rect x="800" y="1350" width="120" height="70" class="step-box" />
  <text x="860" y="1375" class="step-title">프리미엄 모드</text>
  <text x="860" y="1395" class="step-desc">광고 제거/추가 기능</text>
  
  <line x1="620" y1="1385" x2="800" y2="1385" class="flow-arrow" />
  
  <!-- 광고 플로우 -->
  <rect x="200" y="1450" width="120" height="70" class="step-box" />
  <text x="260" y="1470" class="step-title">광고 표시 지점</text>
  <text x="260" y="1490" class="step-desc">분석/콘텐츠/타임캡슐</text>
  
  <line x1="260" y1="1420" x2="260" y2="1450" class="flow-arrow" />
  
  <!-- 결제 플로우 -->
  <rect x="800" y="1450" width="120" height="70" class="step-box" />
  <text x="860" y="1470" class="step-title">결제 처리</text>
  <text x="860" y="1490" class="step-desc">구독 확인/관리</text>
  
  <line x1="860" y1="1420" x2="860" y2="1450" class="flow-arrow" />
  
  <!-- 5. 예외 및 에러 플로우 -->
  <rect x="50" y="1550" width="1100" height="220" class="section-box" />
  <text x="75" y="1580" class="module-title">5. 예외 및 에러 플로우</text>
  
  <!-- 인터넷 연결 문제 -->
  <rect x="200" y="1620" width="120" height="70" class="step-box" />
  <text x="260" y="1645" class="step-title">오프라인 모드</text>
  <text x="260" y="1665" class="step-desc">연결 문제 발생</text>
  
  <rect x="200" y="1710" width="120" height="50" class="step-box" />
  <text x="260" y="1735" class="step-desc">로컬 기능만 사용</text>
  
  <line x1="260" y1="1690" x2="260" y2="1710" class="flow-arrow" />
  
  <!-- 계정 및 보안 이슈 -->
  <rect x="500" y="1620" width="120" height="70" class="step-box" />
  <text x="560" y="1645" class="step-title">계정 문제</text>
  <text x="560" y="1665" class="step-desc">비밀번호/접근 오류</text>
  
  <rect x="500" y="1710" width="120" height="50" class="step-box" />
  <text x="560" y="1735" class="step-desc">재설정/지원 요청</text>
  
  <line x1="560" y1="1690" x2="560" y2="1710" class="flow-arrow" />
  
  <!-- 데이터 복구 -->
  <rect x="800" y="1620" width="120" height="70" class="step-box" />
  <text x="860" y="1645" class="step-title">데이터 복구</text>
  <text x="860" y="1665" class="step-desc">백업/손실 문제</text>
  
  <rect x="800" y="1710" width="120" height="50" class="step-box" />
  <text x="860" y="1735" class="step-desc">복원 절차 진행</text>
  
  <line x1="860" y1="1690" x2="860" y2="1710" class="flow-arrow" />
</svg>